<svg width="186" height="189" viewBox="0 0 186 189" fill="none" xmlns="http://www.w3.org/2000/svg">
<path d="M94.756 188.119C70.2767 187.722 50.5901 180.65 33.5025 166.512C18.4749 154.082 8.63156 138.272 3.38732 119.579C0.387321 108.886 -0.691021 97.9437 0.438012 86.8952C2.3735 67.9668 9.17534 50.9829 21.3965 36.2624C34.7836 20.1423 51.6961 9.68038 72.0509 4.89978C76.9311 3.75429 82.014 3.50948 86.9726 2.67807C88.1707 2.47484 89.4334 1.782 90.3458 0.959829C91.7882 -0.338093 94.1016 -0.324236 95.6776 1.02911C96.5855 1.80971 97.8205 2.59031 98.9587 2.67345C110.484 3.50024 121.484 6.29008 131.963 11.1538C147.134 18.1931 159.521 28.6088 169.014 42.3224C177.415 54.461 182.71 67.8698 184.715 82.5996C187.35 101.948 184.249 120.29 175.364 137.57C165.903 155.962 151.853 169.796 133.106 178.78C125.373 182.484 117.314 185.163 108.899 186.604C103.484 187.533 97.9587 187.796 94.7606 188.124L94.756 188.119ZM184.383 95.2785C184.581 86.4194 183.364 77.7127 180.756 69.3016C173.129 44.7243 158.019 26.1931 135.235 14.073C124.148 8.17461 112.281 4.93212 99.7698 3.98985C98.0647 3.86052 96.5993 3.88824 95.3228 5.50948C93.9127 7.30625 91.9818 6.94135 90.1661 5.25544C89.4334 4.57646 88.2214 3.92057 87.3044 4.01295C82.438 4.51641 77.5071 4.88593 72.7606 5.98985C45.5763 12.3132 25.1615 27.8328 11.9449 52.3455C1.79746 71.1631 -0.972126 91.3478 2.9864 112.392C6.94032 133.422 17.1799 150.96 33.3136 164.844C47.4703 177.02 63.9726 184.267 82.6869 186.202C92.6638 187.232 102.558 186.84 112.364 184.715C128.009 181.329 141.982 174.355 153.788 163.671C173.931 145.449 184.189 122.54 184.383 95.2785Z" fill="white"/>
<path d="M93.0324 25.7959C111.106 25.6665 126.793 31.8374 140.042 44.0314C153.364 56.2901 160.691 71.5834 162.479 89.5834C162.581 90.618 163.309 91.782 164.092 92.5257C165.894 94.2393 165.857 96.6596 163.945 98.304C163.244 98.9044 162.567 99.9114 162.479 100.789C161.148 114.512 156.549 127.001 148.065 137.874C139.443 148.923 128.479 156.807 115.078 161.265C97.6453 167.071 80.5025 166.267 63.9034 158.623C45.0324 149.934 32.4241 135.38 26.2398 115.556C20.7467 97.9575 22.2213 80.655 30.5025 64.2347C40.7467 43.9252 57.3965 31.6204 79.5762 26.7797C81.802 26.2947 84.0831 25.9899 86.355 25.8236C88.5716 25.6619 90.8066 25.7866 93.0324 25.7866V25.7959ZM92.3135 26.7197C71.4656 27.1585 53.4978 35.2693 39.6776 52.0268C29.3412 64.558 24.1614 79.1492 24.4011 95.2693C24.7329 117.907 33.7006 136.6 52.12 150.216C69.7144 163.223 89.3873 166.798 110.433 161.422C128.115 156.9 141.867 146.521 151.479 130.946C157.079 121.874 160.208 111.907 161.18 101.279C161.304 99.9437 161.134 98.849 159.89 97.8836C158.281 96.6365 158.553 94.3409 159.954 92.5857C160.595 91.7913 161.097 90.6458 161.115 89.6435C161.157 87.8236 160.913 85.9714 160.576 84.17C157.341 66.9275 149.277 52.5349 135.415 41.5418C123 31.6943 108.802 27.0384 92.3135 26.715V26.7197Z" fill="white"/>
<path d="M139.682 95.7405C138.931 113.824 130.779 128.189 114.069 136.669C96.6958 145.491 79.8064 143.463 64.0138 132.05C63.2718 131.514 62.1244 131.274 61.1889 131.325C58.0368 131.496 56.6958 130.096 57.0091 126.895C57.0829 126.119 56.9078 125.117 56.4469 124.521C48.5575 114.258 44.9953 102.664 46.5115 89.8282C48.046 76.8259 54.2027 66.1746 64.6128 58.17C73.0322 51.6943 82.7188 48.3594 93.2995 48.5488C113.857 48.9137 130.751 61.5649 137.341 80.9137C138.226 83.5095 138.746 86.2486 139.203 88.9599C139.544 90.9922 139.507 93.0846 139.677 95.7451L139.682 95.7405ZM92.5391 140.831C95.6543 140.493 98.8202 140.387 101.885 139.782C112.341 137.708 121.074 132.604 127.862 124.327C137.055 113.117 140.018 100.281 137.369 86.1608C135.346 75.3894 129.935 66.4703 121.272 59.782C106.894 48.6827 90.9999 46.5072 74.4285 53.7589C59.1013 60.4703 50.1197 72.5996 47.8709 89.3063C46.1704 101.921 49.4515 113.32 57.1981 123.394C57.7649 124.133 59.046 124.604 60.0368 124.678C62.3594 124.858 63.9815 126.101 63.7142 128.378C63.5299 129.93 64.2027 130.632 65.2165 131.38C73.3317 137.376 82.364 140.65 92.5437 140.826L92.5391 140.831Z" fill="white"/>
<path d="M92.8018 71.8467C105.774 71.3663 116.475 82.1793 116.456 95.6019C116.442 108.355 105.728 118.951 92.7326 118.798C79.8064 118.646 69.4561 108.235 69.4147 95.1031C69.3732 82.2301 80.3455 71.3941 92.8018 71.8467Z" fill="white"/>
</svg>
